<svg xmlns="http://www.w3.org/2000/svg" xmlns:xlink="http://www.w3.org/1999/xlink" viewBox="0 0 469.37839 127.18766"><defs><style>.cls-1{isolation:isolate;}.cls-2{fill:url(#Sfumatura_senza_nome_168);}.cls-3{fill:url(#Sfumatura_senza_nome_75);}.cls-4{opacity:0.43;fill:url(#Sfumatura_senza_nome_202);}.cls-5{fill:url(#Sfumatura_senza_nome_27);}.cls-6{fill:url(#Sfumatura_senza_nome_45);}.cls-7{fill:url(#Sfumatura_senza_nome_66);}.cls-8{fill:url(#Sfumatura_senza_nome_110);}.cls-9{fill:url(#Sfumatura_senza_nome_129);}.cls-10{mix-blend-mode:color-burn;fill:url(#Sfumatura_senza_nome_81);}.cls-11{opacity:0.25;fill:url(#Sfumatura_senza_nome_194);}.cls-12{fill:url(#Sfumatura_senza_nome_203);}.cls-13{opacity:0.17;mix-blend-mode:soft-light;fill:url(#Sfumatura_senza_nome_187);}.cls-14{fill:#3a3a3a;}</style><linearGradient id="Sfumatura_senza_nome_168" x1="9.94547" y1="-2.51326" x2="73.7724" y2="-2.51326" gradientTransform="translate(-0.00371 79.68115) rotate(-18.42227)" gradientUnits="userSpaceOnUse"><stop offset="0" stop-color="#262262"/><stop offset="0.5" stop-color="#662d91"/><stop offset="0.67328" stop-color="#642c8e"/><stop offset="0.79976" stop-color="#5c2a85"/><stop offset="0.911" stop-color="#4e2675"/><stop offset="1" stop-color="#3e2262"/></linearGradient><linearGradient id="Sfumatura_senza_nome_75" x1="9.94547" y1="-2.51326" x2="73.7724" y2="-2.51326" gradientTransform="translate(-0.00371 79.68115) rotate(-18.42227)" gradientUnits="userSpaceOnUse"><stop offset="0" stop-color="#17224d"/><stop offset="0.10485" stop-color="#30235b" stop-opacity="0.79328"/><stop offset="0.32003" stop-color="#5b2572" stop-opacity="0.44646"/><stop offset="0.53943" stop-color="#7a2682" stop-opacity="0.19772"/><stop offset="0.7637" stop-color="#8c278c" stop-opacity="0.04899"/><stop offset="1" stop-color="#92278f" stop-opacity="0"/></linearGradient><linearGradient id="Sfumatura_senza_nome_202" x1="9.94545" y1="-1.39795" x2="62.9077" y2="-1.39795" gradientTransform="translate(-0.00371 79.68115) rotate(-18.42227)" gradientUnits="userSpaceOnUse"><stop offset="0" stop-color="#92278f" stop-opacity="0"/><stop offset="0.04991" stop-color="#942a8f" stop-opacity="0.16087"/><stop offset="0.1318" stop-color="#982d90" stop-opacity="0.38382"/><stop offset="0.2213" stop-color="#9b3090" stop-opacity="0.57554"/><stop offset="0.31861" stop-color="#9d3390" stop-opacity="0.73132"/><stop offset="0.42686" stop-color="#9f3591" stop-opacity="0.85147"/><stop offset="0.55192" stop-color="#a03691" stop-opacity="0.93609"/><stop offset="0.70894" stop-color="#a13791" stop-opacity="0.98542"/><stop offset="1" stop-color="#a13791"/></linearGradient><linearGradient id="Sfumatura_senza_nome_27" x1="4.20966" y1="-23.5999" x2="89.27271" y2="-23.5999" gradientTransform="translate(-0.00371 79.68115) rotate(-18.42227)" gradientUnits="userSpaceOnUse"><stop offset="0" stop-color="#1c75bc"/><stop offset="0.5" stop-color="#00aeef"/><stop offset="1" stop-color="#4fd5df"/></linearGradient><linearGradient id="Sfumatura_senza_nome_45" x1="35.34986" y1="63.68922" x2="35.34986" y2="29.72643" gradientTransform="translate(-0.00371 79.68115) rotate(-18.42227)" gradientUnits="userSpaceOnUse"><stop offset="0" stop-color="#da1c5c"/><stop offset="0.5" stop-color="#9e1f63"/><stop offset="1" stop-color="#9e1f63"/></linearGradient><linearGradient id="Sfumatura_senza_nome_66" x1="35.52171" y1="63.68922" x2="35.52171" y2="29.72643" gradientTransform="translate(-0.00371 79.68115) rotate(-18.42227)" gradientUnits="userSpaceOnUse"><stop offset="0" stop-color="#da1c5c"/><stop offset="0.99505" stop-color="#351840"/></linearGradient><linearGradient id="Sfumatura_senza_nome_110" x1="21.67708" y1="25.9094" x2="81.5722" y2="25.9094" gradientTransform="translate(-0.00371 79.68115) rotate(-18.42227)" gradientUnits="userSpaceOnUse"><stop offset="0" stop-color="#ee2a7b"/><stop offset="0.5" stop-color="#da1c5c"/><stop offset="1" stop-color="#9e1f63"/></linearGradient><linearGradient id="Sfumatura_senza_nome_129" x1="21.67708" y1="25.9094" x2="81.65527" y2="25.9094" gradientTransform="translate(-0.00371 79.68115) rotate(-18.42227)" gradientUnits="userSpaceOnUse"><stop offset="0" stop-color="#ee2a7b" stop-opacity="0"/><stop offset="0.0196" stop-color="#ee2b7b" stop-opacity="0.09086"/><stop offset="0.06998" stop-color="#ef2d7a" stop-opacity="0.30174"/><stop offset="0.12273" stop-color="#f02f79" stop-opacity="0.48875"/><stop offset="0.17681" stop-color="#f13078" stop-opacity="0.64636"/><stop offset="0.23261" stop-color="#f13278" stop-opacity="0.77483"/><stop offset="0.29061" stop-color="#f13378" stop-opacity="0.87424"/><stop offset="0.35179" stop-color="#f23377" stop-opacity="0.94479"/><stop offset="0.41831" stop-color="#f23477" stop-opacity="0.98664"/><stop offset="0.5" stop-color="#f23477"/><stop offset="0.56122" stop-color="#f13477" stop-opacity="0.98256"/><stop offset="0.62533" stop-color="#ec3376" stop-opacity="0.93059"/><stop offset="0.69077" stop-color="#e53174" stop-opacity="0.84398"/><stop offset="0.75713" stop-color="#db2e71" stop-opacity="0.72257"/><stop offset="0.82424" stop-color="#ce2b6e" stop-opacity="0.56616"/><stop offset="0.89195" stop-color="#bd276a" stop-opacity="0.37463"/><stop offset="0.95888" stop-color="#ab2266" stop-opacity="0.15251"/><stop offset="1" stop-color="#9e1f63" stop-opacity="0"/></linearGradient><linearGradient id="Sfumatura_senza_nome_81" x1="4.20964" y1="-23.59991" x2="88.22447" y2="-23.59991" gradientTransform="translate(-0.00371 79.68115) rotate(-18.42227)" gradientUnits="userSpaceOnUse"><stop offset="0" stop-color="#d9e8bc"/><stop offset="1" stop-color="#4fd5df"/></linearGradient><linearGradient id="Sfumatura_senza_nome_194" x1="26.79593" y1="12.95535" x2="71.40686" y2="-64.31304" gradientTransform="translate(-0.00371 79.68115) rotate(-18.42227)" gradientUnits="userSpaceOnUse"><stop offset="0" stop-color="#1c75bc" stop-opacity="0"/><stop offset="0.06043" stop-color="#458ec5" stop-opacity="0.18053"/><stop offset="0.151" stop-color="#7db0d2" stop-opacity="0.42634"/><stop offset="0.23782" stop-color="#abccdc" stop-opacity="0.63131"/><stop offset="0.31841" stop-color="#d0e2e4" stop-opacity="0.79102"/><stop offset="0.39139" stop-color="#eaf2ea" stop-opacity="0.90558"/><stop offset="0.45434" stop-color="#f9fcee" stop-opacity="0.97526"/><stop offset="0.5" stop-color="#ffffef"/><stop offset="0.59081" stop-color="#fdffef" stop-opacity="0.98849"/><stop offset="0.65714" stop-color="#f6fdee" stop-opacity="0.95165"/><stop offset="0.7157" stop-color="#ecfaed" stop-opacity="0.88923"/><stop offset="0.76977" stop-color="#dcf7ec" stop-opacity="0.80109"/><stop offset="0.82074" stop-color="#c8f2ea" stop-opacity="0.68712"/><stop offset="0.86944" stop-color="#afece8" stop-opacity="0.54707"/><stop offset="0.91632" stop-color="#92e5e5" stop-opacity="0.38082"/><stop offset="0.96057" stop-color="#71dde2" stop-opacity="0.19343"/><stop offset="1" stop-color="#4fd5df" stop-opacity="0"/></linearGradient><linearGradient id="Sfumatura_senza_nome_203" x1="21.67708" y1="25.9094" x2="78.51381" y2="25.9094" gradientTransform="translate(-0.00371 79.68115) rotate(-18.42227)" gradientUnits="userSpaceOnUse"><stop offset="0" stop-color="#ee2a7b" stop-opacity="0"/><stop offset="0.24546" stop-color="#d32673" stop-opacity="0.33875"/><stop offset="0.48653" stop-color="#bc236c" stop-opacity="0.62427"/><stop offset="0.70025" stop-color="#ac2167" stop-opacity="0.82955"/><stop offset="0.87867" stop-color="#a21f64" stop-opacity="0.95484"/><stop offset="1" stop-color="#9e1f63"/></linearGradient><linearGradient id="Sfumatura_senza_nome_187" x1="23.9599" y1="25.9094" x2="81.65527" y2="25.9094" gradientTransform="translate(-0.00371 79.68115) rotate(-18.42227)" gradientUnits="userSpaceOnUse"><stop offset="0" stop-color="#ee2a7b" stop-opacity="0"/><stop offset="0.03008" stop-color="#f0478d" stop-opacity="0.1374"/><stop offset="0.07934" stop-color="#f472a8" stop-opacity="0.33739"/><stop offset="0.13094" stop-color="#f798bf" stop-opacity="0.51487"/><stop offset="0.18386" stop-color="#f9b8d3" stop-opacity="0.66446"/><stop offset="0.23842" stop-color="#fbd1e3" stop-opacity="0.78632"/><stop offset="0.29518" stop-color="#fde6ef" stop-opacity="0.88068"/><stop offset="0.35504" stop-color="#fef4f8" stop-opacity="0.94763"/><stop offset="0.42008" stop-color="#fffcfd" stop-opacity="0.98732"/><stop offset="0.5" stop-color="#fff"/><stop offset="0.55959" stop-color="#fdfbfc" stop-opacity="0.98345"/><stop offset="0.62194" stop-color="#f9f0f5" stop-opacity="0.93416"/><stop offset="0.68564" stop-color="#f1dee8" stop-opacity="0.85196"/><stop offset="0.75025" stop-color="#e5c4d6" stop-opacity="0.73671"/><stop offset="0.81556" stop-color="#d7a3bf" stop-opacity="0.58828"/><stop offset="0.88146" stop-color="#c57aa2" stop-opacity="0.40651"/><stop offset="0.94657" stop-color="#b14b82" stop-opacity="0.19578"/><stop offset="1" stop-color="#9e1f63" stop-opacity="0"/></linearGradient></defs><title>Ресурс 4</title><g class="cls-1"><g id="Слой_2" data-name="Слой 2"><g id="Objects"><path class="cls-2" d="M12.543,60.4004s6.8795,3.4817,39.6256-4.2548c7.3214-1.7297,12.1695-2.7603,16.7487-2.0713,0,0,4.05661,4.2394-4.9953,8.1318s-21.7094,13.2172-21.7094,13.2172-18.28069,4.6865-19.9909,4.5546-9.2091.7875-13.365-5.8964S12.543,60.4004,12.543,60.4004Z"/><path class="cls-3" d="M12.543,60.4004s6.8827,3.4952,39.6256-4.2548c7.2745-1.7218,12.1695-2.7603,16.7487-2.0713,0,0,4.05661,4.2394-4.9953,8.1318s-21.7094,13.2172-21.7094,13.2172-18.28069,4.6865-19.9909,4.5546-9.2091.7875-13.365-5.8964S12.543,60.4004,12.543,60.4004Z"/><path class="cls-4" d="M32.95858,70.6131c-19.41869,4.8901-18.839.312-18.839.312s-2.2125-3.4968-4.3249-7.2583c-1.7632,2.6601-3.3176,6.5876-.938,10.4147,4.1559,6.6839,11.6548,5.7644,13.365,5.8964,1.71021.1318,19.9909-4.5546,19.9909-4.5546A161.51619,161.51619,0,0,1,60.945,63.6096C53.92858,65.0838,44.008,67.8306,32.95858,70.6131Z"/><path class="cls-5" d="M66.44028,0s15.7411,17.7672-15.479,40.9374C17.48178,65.7845,8.80889,80.252,22.56978,79.9652c0,0-19.2932,4.7447-22.2891-13.7263-1.7653-10.8842,5.3821-17.417,14.3121-24.8011C14.59278,41.4378,45.52608,19.3538,66.44028,0Z"/><path class="cls-6" d="M50.07708,94.3302s-10.5857,18.0939,8.9049,32.4713a.21205.21205,0,0,1-.1879.3745,79.27372,79.27372,0,0,1-12.0519-5.4195C34.55889,115.0011,43.95258,101.0106,50.07708,94.3302Z"/><path class="cls-7" d="M50.07708,94.3302s-10.5857,18.0939,8.9049,32.4713a.21205.21205,0,0,1-.1879.3745c-3.0965-1.0101-10.3641-3.7662-13.4311-6.6479C35.21078,110.9888,43.95258,101.0106,50.07708,94.3302Z"/><path class="cls-8" d="M80.31068,63.5248c-.6637-8.4884-12.2144-9.558-12.2144-9.558,6.9474,3.8029-14.4716,8.3687-30.1272,25.8957-11.1068,12.4344-6.6851,25.1601-6.6851,25.1601l.03091.0169c3.47229,11.6387,15.42729,16.717,15.42729,16.717C27.55638,94.1206,81.46368,79.1699,80.31068,63.5248Z"/><path class="cls-9" d="M80.31068,63.5248c-.3221-8.6021-12.2144-9.558-12.2144-9.558,6.9474,3.8029-14.4716,8.3687-30.1272,25.8957-11.1068,12.4344-6.6851,25.1601-6.6851,25.1601l.03091.0169c3.47229,11.6387,15.42729,16.717,15.42729,16.717C27.55638,94.1206,80.07478,79.7843,80.31068,63.5248Z"/><path class="cls-10" d="M33.18938,38.7016C69.25058,12.9685,66.44018,0,66.44018,0c-18.5005,17.6392-51.8475,41.4378-51.8475,41.4378C5.29089,49.1481-1.48462,55.3546.28068,66.2389c2.9958,18.471,22.2891,13.7263,22.2891,13.7263C.11938,84.1834-4.05832,65.2813,33.18938,38.7016Z"/><path class="cls-11" d="M66.44028,0l-.0001.0001c.0002.0006,2.8094,12.969-33.2508,38.7015C4.70008,59.0313.446,74.8689,10.06558,79.3059a21.8523,21.8523,0,0,0,8.8372,1.1556,34.96063,34.96063,0,0,0,3.6668-.4963c-13.7606.2866-5.08769-14.1809,28.3917-39.0278C82.18138,17.7672,66.44028,0,66.44028,0Z"/><path class="cls-12" d="M71.874,65.5426c6.4027-4.7219,3.1174-8.6748,2.7892-9.0415a16.80944,16.80944,0,0,0-6.5669-2.5343c6.9474,3.8029-14.4716,8.3687-30.1272,25.8957-11.1068,12.4344-6.6851,25.1601-6.6851,25.1601l.03091.0169c3.47229,11.6387,15.42729,16.717,15.42729,16.717C11.28728,101.0192,64.93808,70.6575,71.874,65.5426Z"/><path class="cls-13" d="M68.09628,53.9668a16.80944,16.80944,0,0,1,6.5669,2.5343c.3282.3666,3.6135,4.3196-2.7892,9.0415-6.9358,5.1149-61.4108,34.4474-25.1318,56.2139-19.1858-27.6359,33.3326-41.9722,33.5685-58.2317C79.98858,54.9227,68.09628,53.9668,68.09628,53.9668Z"/><path class="cls-14" d="M126.47067,64.83059a18.78728,18.78728,0,0,0,9.50488,2.68066c5.42237,0,8.59082-2.86425,8.59082-7.00683,0-3.83887-2.19335-6.03223-7.73779-8.16406-6.70215-2.377-10.84521-5.84961-10.84521-11.6377,0-6.39746,5.30078-11.15039,13.28222-11.15039a18.66464,18.66464,0,0,1,9.07813,2.01074l-1.46192,4.32617A16.35373,16.35373,0,0,0,139.083,33.94c-5.60547,0-7.73829,3.35058-7.73829,6.15332,0,3.83886,2.49854,5.72753,8.16456,7.92089,6.9458,2.68067,10.48,6.03125,10.48,12.06348,0,6.33691-4.6919,11.82031-14.3794,11.82031-3.96045,0-8.28613-1.1582-10.47949-2.62011Z"/><path class="cls-14" d="M192.33395,50.32961c0,14.13477-8.59082,21.62891-19.07031,21.62891-10.84521,0-18.46143-8.4082-18.46143-20.83691,0-13.03907,8.10352-21.56934,19.07081-21.56934C185.08346,29.55227,192.33395,38.14407,192.33395,50.32961Zm-31.86523.66993c0,8.77343,4.75244,16.63378,13.09961,16.63378,8.4082,0,13.16015-7.73828,13.16015-17.06054,0-8.16406-4.26464-16.69434-13.09912-16.69434C164.85544,33.87844,160.46872,41.982,160.46872,50.99954Z"/><path class="cls-14" d="M199.21872,30.22317h5.30078V66.84036h17.54736V71.2886H199.21872Z"/><path class="cls-14" d="M233.27682,30.22317V71.2886H227.976V30.22317Z"/><path class="cls-14" d="M242.53805,30.771a75.95434,75.95434,0,0,1,11.272-.85254c7.61621,0,13.03906,1.7666,16.63379,5.11817,3.65625,3.35058,5.78808,8.10351,5.78808,14.74414,0,6.70214-2.07129,12.18554-5.91015,15.96289-3.8379,3.83886-10.17481,5.91015-18.15625,5.91015a85.55871,85.55871,0,0,1-9.62745-.4873Zm5.30127,36.31348a33.42246,33.42246,0,0,0,5.36133.30468c11.333,0,17.48731-6.33691,17.48731-17.42578.06054-9.6875-5.42286-15.84082-16.63379-15.84082a30.12179,30.12179,0,0,0-6.21485.54785Z"/><path class="cls-14" d="M304.38034,52.03567H288.41745V66.84036h17.791V71.2886H283.11667V30.22317H305.2944v4.44726h-16.877V47.648h15.96289Z"/><path class="cls-14" d="M335.57565,71.2886l-5.24023-9.07813c-2.13184-3.47265-3.47266-5.72754-4.752-8.10351h-.12207c-1.15722,2.376-2.31543,4.56933-4.44824,8.16406l-4.93457,9.01758h-6.09277l12.55078-20.77637L310.47311,30.22317h6.15332l5.42285,9.626c1.52344,2.68164,2.68067,4.75292,3.77735,6.94628h.18359c1.15723-2.4375,2.19336-4.32617,3.71582-6.94628l5.60547-9.626h6.09277L328.93405,50.20754,341.729,71.2886Z"/><path class="cls-14" d="M347.88327,30.71047a61.40717,61.40717,0,0,1,10.1748-.792c5.24024,0,9.07813,1.21875,11.51563,3.41211a11.04013,11.04013,0,0,1,3.59473,8.59082,12.08546,12.08546,0,0,1-3.16895,8.77344c-2.80176,2.98535-7.37207,4.50879-12.55078,4.50879a18.29067,18.29067,0,0,1-4.26465-.36524V71.2886h-5.30078Zm5.30078,19.80176a17.76593,17.76593,0,0,0,4.38672.42676c6.39746,0,10.29687-3.10742,10.29687-8.77442,0-5.42187-3.83886-8.042-9.6875-8.042a22.289,22.289,0,0,0-4.99609.42578Z"/><path class="cls-14" d="M401.561,52.03567H385.59811V66.84036h17.791V71.2886h-23.0918V30.22317h22.17774v4.44726h-16.877V47.648H401.561Z"/><path class="cls-14" d="M410.27389,30.771a55.25192,55.25192,0,0,1,10.17481-.85254c5.666,0,9.32226,1.03516,11.88086,3.35059a10.22965,10.22965,0,0,1,3.22949,7.79883,10.78159,10.78159,0,0,1-7.73828,10.47949V51.731c3.168,1.09668,5.05762,4.02051,6.03223,8.28613,1.33984,5.72657,2.31543,9.6875,3.168,11.27149h-5.48339c-.66993-1.15723-1.584-4.69141-2.74219-9.80957-1.21778-5.666-3.41113-7.79883-8.22461-7.98145h-4.99609v17.791h-5.30079Zm5.30079,18.70508h5.42187c5.667,0,9.26172-3.10742,9.26172-7.79883,0-5.30078-3.83887-7.61621-9.44434-7.67676a21.78084,21.78084,0,0,0-5.23925.48731Z"/><path class="cls-14" d="M451.39889,34.732H438.90866V30.22317H469.312V34.732H456.76022V71.2886h-5.36133Z"/><path class="cls-14" d="M124.17135,98.87454a7.70747,7.70747,0,0,0,3.90137,1.10058c2.22608,0,3.52637-1.1748,3.52637-2.876,0-1.5752-.90039-2.47559-3.17627-3.35157-2.751-.97461-4.45166-2.40039-4.45166-4.77636,0-2.626,2.17578-4.57618,5.45215-4.57618a7.65375,7.65375,0,0,1,3.72656.8252l-.60059,1.77539a6.71509,6.71509,0,0,0-3.20117-.80078c-2.30078,0-3.17578,1.376-3.17578,2.52637,0,1.57519,1.0249,2.35058,3.35108,3.251,2.85107,1.10059,4.30127,2.47656,4.30127,4.95215,0,2.60059-1.9253,4.85156-5.90186,4.85156a8.7084,8.7084,0,0,1-4.30176-1.07519Z"/><path class="cls-14" d="M147.8276,95.37356c0,4.47656-3.10107,6.42773-6.02734,6.42773-3.27637,0-5.80224-2.40136-5.80224-6.22754,0-4.05175,2.65087-6.42773,6.00244-6.42773C145.47653,89.146,147.8276,91.67239,147.8276,95.37356Zm-9.60351.125c0,2.65137,1.52539,4.65137,3.67627,4.65137,2.10058,0,3.67627-1.97559,3.67627-4.70118,0-2.05078-1.02539-4.65136-3.62647-4.65136C139.34958,90.79739,138.22409,93.19778,138.22409,95.49856Z"/><path class="cls-14" d="M150.82565,101.5259V91.09719H149.125V89.42141h1.70068v-.57519a5.70723,5.70723,0,0,1,1.40039-4.22657,4.213,4.213,0,0,1,2.95117-1.125,5.10691,5.10691,0,0,1,1.87549.34961l-.2998,1.70117a3.28129,3.28129,0,0,0-1.40039-.27539c-1.876,0-2.35108,1.65039-2.35108,3.501v.65039h2.92627v1.67578h-2.92627V101.5259Z"/><path class="cls-14" d="M160.82712,85.94485v3.47656h3.15136v1.67578h-3.15136v6.52735c0,1.501.42529,2.35058,1.65088,2.35058a4.93851,4.93851,0,0,0,1.27539-.14941l.10009,1.65039a5.39553,5.39553,0,0,1-1.95068.2998,3.05149,3.05149,0,0,1-2.376-.9248,4.4835,4.4835,0,0,1-.85058-3.15137V91.09719h-1.87549V89.42141h1.87549V86.52Z"/><path class="cls-14" d="M167.5527,89.42141l1.60059,6.15234c.3501,1.35059.67529,2.60059.8999,3.85157h.0752c.27539-1.22559.67529-2.52637,1.07568-3.82617l1.97559-6.17774h1.85058l1.87549,6.05274c.4502,1.45019.80029,2.72558,1.07568,3.95117h.07471a36.38974,36.38974,0,0,1,.92578-3.92676l1.72559-6.07715h2.17578L178.9819,101.5259h-2.001l-1.85059-5.77734a40.20992,40.20992,0,0,1-1.0752-3.97656h-.05029a35.81448,35.81448,0,0,1-1.10058,4.00195l-1.95069,5.75195h-2.00049l-3.65136-12.10449Z"/><path class="cls-14" d="M191.68307,101.5259l-.17529-1.52539h-.07519a4.50872,4.50872,0,0,1-3.70118,1.80078,3.44857,3.44857,0,0,1-3.70117-3.47656c0-2.92578,2.60059-4.52637,7.27735-4.502v-.25a2.49514,2.49514,0,0,0-2.751-2.80078,6.02388,6.02388,0,0,0-3.15088.90039l-.50049-1.4502A7.51224,7.51224,0,0,1,188.8818,89.146c3.70118,0,4.60157,2.52637,4.60157,4.95215v4.52637a17.058,17.058,0,0,0,.20019,2.90136Zm-.32519-6.17773c-2.40088-.04981-5.12695.376-5.12695,2.72656a1.94718,1.94718,0,0,0,2.07568,2.10059,3.01145,3.01145,0,0,0,2.92627-2.02539,2.31152,2.31152,0,0,0,.125-.7002Z"/><path class="cls-14" d="M197.03219,93.19778c0-1.42578-.0249-2.65137-.10009-3.77637h1.92578l.07519,2.376h.09961a3.632,3.632,0,0,1,3.35157-2.65137,2.3883,2.3883,0,0,1,.625.0752v2.07617a3.3167,3.3167,0,0,0-.75-.0752,3.08725,3.08725,0,0,0-2.95118,2.82617,6.16347,6.16347,0,0,0-.10009,1.02539v6.45215h-2.17579Z"/><path class="cls-14" d="M206.18454,95.87356a3.87787,3.87787,0,0,0,4.15137,4.20215,7.948,7.948,0,0,0,3.35107-.626l.37549,1.57617a9.81606,9.81606,0,0,1-4.02686.75c-3.72607,0-5.95215-2.45117-5.95215-6.10254s2.15088-6.52734,5.67725-6.52734c3.95166,0,5.002,3.47656,5.002,5.70215a8.30768,8.30768,0,0,1-.07519,1.02539Zm6.45215-1.5752c.0249-1.40039-.5752-3.57617-3.05127-3.57617-2.22559,0-3.20117,2.05078-3.376,3.57617Z"/><path class="cls-14" d="M222.86178,84.895a31.13929,31.13929,0,0,1,4.62647-.35058c3.126,0,5.35205.72558,6.82764,2.10058a7.76518,7.76518,0,0,1,2.376,6.05274,8.91588,8.91588,0,0,1-2.42627,6.55273c-1.57519,1.5752-4.17627,2.42578-7.45263,2.42578a35.12114,35.12114,0,0,1-3.95118-.20019Zm2.17579,14.90528a13.78332,13.78332,0,0,0,2.20068.125c4.65185,0,7.17773-2.60059,7.17773-7.15235.02491-3.97656-2.22607-6.50293-6.82763-6.50293a12.35648,12.35648,0,0,0-2.55078.22559Z"/><path class="cls-14" d="M240.76462,95.87356a3.87787,3.87787,0,0,0,4.15136,4.20215,7.948,7.948,0,0,0,3.35108-.626l.375,1.57617a9.81329,9.81329,0,0,1-4.02637.75c-3.72607,0-5.95215-2.45117-5.95215-6.10254s2.15088-6.52734,5.67725-6.52734c3.95166,0,5.00146,3.47656,5.00146,5.70215a8.44686,8.44686,0,0,1-.07422,1.02539Zm6.45263-1.5752c.02442-1.40039-.57568-3.57617-3.05175-3.57617-2.22559,0-3.20118,2.05078-3.376,3.57617Z"/><path class="cls-14" d="M252.9155,89.42141l2.376,6.80274a31.08085,31.08085,0,0,1,.97559,3.10058h.07519c.27442-1,.625-2,1.02539-3.10058l2.35059-6.80274H262.019l-4.75195,12.10449h-2.10059l-4.60156-12.10449Z"/><path class="cls-14" d="M265.06784,95.87356a3.87881,3.87881,0,0,0,4.15234,4.20215,7.94719,7.94719,0,0,0,3.35059-.626l.375,1.57617a9.81329,9.81329,0,0,1-4.02637.75c-3.72656,0-5.95215-2.45117-5.95215-6.10254S265.11862,89.146,268.644,89.146c3.95215,0,5.002,3.47656,5.002,5.70215a8.44936,8.44936,0,0,1-.07421,1.02539Zm6.45312-1.5752c.02442-1.40039-.57519-3.57617-3.05175-3.57617-2.22559,0-3.20118,2.05078-3.376,3.57617Z"/><path class="cls-14" d="M276.3696,83.76907h2.20117V101.5259H276.3696Z"/><path class="cls-14" d="M293.22409,95.37356c0,4.47656-3.10059,6.42773-6.02637,6.42773-3.27637,0-5.80273-2.40136-5.80273-6.22754,0-4.05175,2.65136-6.42773,6.00195-6.42773C290.8735,89.146,293.22409,91.67239,293.22409,95.37356Zm-9.60352.125c0,2.65137,1.52637,4.65137,3.67676,4.65137,2.10059,0,3.67676-1.97559,3.67676-4.70118,0-2.05078-1.02539-4.65136-3.62695-4.65136C284.74655,90.79739,283.62057,93.19778,283.62057,95.49856Z"/><path class="cls-14" d="M295.99753,93.37258c0-1.5498-.04981-2.80078-.09961-3.95117h1.97558l.10059,2.07617h.0498a4.75969,4.75969,0,0,1,4.30176-2.35156c2.92578,0,5.127,2.47656,5.127,6.15234,0,4.35157-2.65136,6.50293-5.502,6.50293a4.2432,4.2432,0,0,1-3.72656-1.90136h-.05078v6.57812h-2.17578Zm2.17578,3.22657a4.97653,4.97653,0,0,0,.10058.90039,3.39631,3.39631,0,0,0,3.30079,2.57617c2.32617,0,3.67675-1.90137,3.67675-4.67676,0-2.42578-1.27539-4.50195-3.60156-4.50195a3.5126,3.5126,0,0,0-3.32617,2.72558,3.5667,3.5667,0,0,0-.15039.90039Z"/><path class="cls-14" d="M310.22409,92.69778c0-1.251-.02441-2.27637-.09961-3.27637h1.92578l.09961,1.95117h.0752a4.17355,4.17355,0,0,1,3.80175-2.22656,3.578,3.578,0,0,1,3.42578,2.42578h.05079a4.98669,4.98669,0,0,1,1.34961-1.57519,4.136,4.136,0,0,1,2.67675-.85059c1.60059,0,3.97657,1.05078,3.97657,5.252v7.12793h-2.15137V94.67336c0-2.32617-.85059-3.72656-2.626-3.72656a2.84962,2.84962,0,0,0-2.60058,2.001,3.606,3.606,0,0,0-.17481,1.10058v7.47754h-2.15137V94.273c0-1.92578-.85058-3.32617-2.52539-3.32617a3.27961,3.27961,0,0,0-2.90136,3.27637v7.30273h-2.15137Z"/><path class="cls-14" d="M332.30319,95.87356a3.87855,3.87855,0,0,0,4.15137,4.20215,7.94885,7.94885,0,0,0,3.35156-.626l.375,1.57617a9.81329,9.81329,0,0,1-4.02637.75c-3.72656,0-5.95215-2.45117-5.95215-6.10254S332.354,89.146,335.87936,89.146c3.95215,0,5.002,3.47656,5.002,5.70215a8.44893,8.44893,0,0,1-.07422,1.02539Zm6.45313-1.5752c.02441-1.40039-.5752-3.57617-3.05176-3.57617-2.22559,0-3.20117,2.05078-3.376,3.57617Z"/><path class="cls-14" d="M343.60495,92.69778c0-1.251-.02442-2.27637-.09961-3.27637h1.95117l.125,2.001h.04981a4.4509,4.4509,0,0,1,4.001-2.27637c1.67578,0,4.27735,1.001,4.27735,5.15234v7.22754h-2.20118V94.54836c0-1.95117-.72558-3.57617-2.80078-3.57617a3.2286,3.2286,0,0,0-3.10156,3.27637v7.27734h-2.20117Z"/><path class="cls-14" d="M360.03366,85.94485v3.47656H363.185v1.67578h-3.15137v6.52735c0,1.501.4248,2.35058,1.65039,2.35058a4.93235,4.93235,0,0,0,1.27539-.14941l.10059,1.65039a5.3986,5.3986,0,0,1-1.95118.2998,3.05217,3.05217,0,0,1-2.376-.9248,4.486,4.486,0,0,1-.84961-3.15137V91.09719h-1.876V89.42141h1.876V86.52Z"/><path class="cls-14" d="M382.81393,100.9761a10.81,10.81,0,0,1-4.45117.7998c-4.75195,0-8.32812-3.001-8.32812-8.52832,0-5.27636,3.57617-8.85254,8.80273-8.85254a9.04094,9.04094,0,0,1,4.00195.75l-.52539,1.77539a7.92222,7.92222,0,0,0-3.40136-.70019c-3.95118,0-6.57715,2.52637-6.57715,6.95215,0,4.127,2.376,6.77832,6.47754,6.77832a8.71237,8.71237,0,0,0,3.55078-.7002Z"/><path class="cls-14" d="M396.1401,95.37356c0,4.47656-3.10058,6.42773-6.02636,6.42773-3.27637,0-5.80274-2.40136-5.80274-6.22754,0-4.05175,2.65137-6.42773,6.002-6.42773C393.78952,89.146,396.1401,91.67239,396.1401,95.37356Zm-9.60351.125c0,2.65137,1.52637,4.65137,3.67676,4.65137,2.10058,0,3.67675-1.97559,3.67675-4.70118,0-2.05078-1.02539-4.65136-3.627-4.65136C387.66257,90.79739,386.53659,93.19778,386.53659,95.49856Z"/><path class="cls-14" d="M398.91354,92.69778c0-1.251-.02441-2.27637-.09961-3.27637h1.92578l.09961,1.95117h.0752a4.17356,4.17356,0,0,1,3.80176-2.22656,3.578,3.578,0,0,1,3.42578,2.42578h.05078a4.98669,4.98669,0,0,1,1.34961-1.57519,4.136,4.136,0,0,1,2.67676-.85059c1.60058,0,3.97656,1.05078,3.97656,5.252v7.12793H414.0444V94.67336c0-2.32617-.85058-3.72656-2.626-3.72656a2.84963,2.84963,0,0,0-2.60059,2.001,3.606,3.606,0,0,0-.17481,1.10058v7.47754h-2.15136V94.273c0-1.92578-.85059-3.32617-2.52539-3.32617a3.27961,3.27961,0,0,0-2.90137,3.27637v7.30273h-2.15137Z"/><path class="cls-14" d="M419.76706,93.37258c0-1.5498-.04981-2.80078-.09961-3.95117H421.643l.10059,2.07617h.04981a4.75967,4.75967,0,0,1,4.30175-2.35156c2.92578,0,5.127,2.47656,5.127,6.15234,0,4.35157-2.65137,6.50293-5.502,6.50293a4.2432,4.2432,0,0,1-3.72656-1.90136h-.05078v6.57812h-2.17578Zm2.17578,3.22657a4.97561,4.97561,0,0,0,.10059.90039,3.3963,3.3963,0,0,0,3.30078,2.57617c2.32617,0,3.67675-1.90137,3.67675-4.67676,0-2.42578-1.27539-4.50195-3.60156-4.50195a3.5126,3.5126,0,0,0-3.32617,2.72558,3.5667,3.5667,0,0,0-.15039.90039Z"/><path class="cls-14" d="M440.69772,101.5259l-.1748-1.52539h-.0752a4.5094,4.5094,0,0,1-3.70117,1.80078,3.44914,3.44914,0,0,1-3.70215-3.47656c0-2.92578,2.60156-4.52637,7.27832-4.502v-.25a2.49538,2.49538,0,0,0-2.751-2.80078,6.0256,6.0256,0,0,0-3.15137.90039l-.5-1.4502a7.50839,7.50839,0,0,1,3.97656-1.07617c3.70117,0,4.60156,2.52637,4.60156,4.95215v4.52637a17.00778,17.00778,0,0,0,.2002,2.90136Zm-.32519-6.17773c-2.40137-.04981-5.127.376-5.127,2.72656a1.94732,1.94732,0,0,0,2.07618,2.10059,3.01173,3.01173,0,0,0,2.92578-2.02539,2.2969,2.2969,0,0,0,.125-.7002Z"/><path class="cls-14" d="M446.04635,92.69778c0-1.251-.02441-2.27637-.0996-3.27637h1.95117l.125,2.001h.0498a4.45091,4.45091,0,0,1,4.001-2.27637c1.67578,0,4.27734,1.001,4.27734,5.15234v7.22754h-2.20117V94.54836c0-1.95117-.72559-3.57617-2.80078-3.57617a3.2286,3.2286,0,0,0-3.10156,3.27637v7.27734h-2.20118Z"/><path class="cls-14" d="M460.39987,89.42141l2.65137,7.15234c.27441.80079.57519,1.751.77441,2.47657h.05078c.22461-.72559.47461-1.65137.77539-2.52637l2.40039-7.10254h2.32618l-3.30176,8.62793c-1.5752,4.15137-2.65039,6.27734-4.15137,7.57813a5.96862,5.96862,0,0,1-2.70117,1.42578l-.54981-1.85059a5.83311,5.83311,0,0,0,1.92579-1.07617,6.6726,6.6726,0,0,0,1.85058-2.4502,1.59273,1.59273,0,0,0,.17481-.52539,1.92793,1.92793,0,0,0-.14942-.57519l-4.47754-11.1543Z"/></g></g></g></svg>